<svg height="512pt" viewBox="-74 0 512 512" width="512pt" xmlns="http://www.w3.org/2000/svg"><path d="m339.769531 512h-315.035156c-13.660156 0-24.734375-11.074219-24.734375-24.734375v-462.53125c0-13.660156 11.074219-24.734375 24.734375-24.734375h315.035156c13.660157 0 24.734375 11.074219 24.734375 24.734375v462.53125c0 13.660156-11.074218 24.734375-24.734375 24.734375zm0 0" fill="#ff9bbb"/><path d="m339.769531 0h-34.894531v512h34.894531c13.660157 0 24.734375-11.074219 24.734375-24.734375v-462.53125c0-13.660156-11.074218-24.734375-24.734375-24.734375zm0 0" fill="#f777a6"/><path d="m39.160156 234.859375v-183.867187c0-6.535157 5.296875-11.832032 11.832032-11.832032h262.519531c6.535156 0 11.832031 5.296875 11.832031 11.832032v183.867187c0 6.535156-5.296875 11.832031-11.832031 11.832031h-262.519531c-6.535157 0-11.832032-5.296875-11.832032-11.832031zm0 0" fill="#e3f6ff"/><path d="m313.511719 39.160156h-47.796875v207.53125h47.796875c6.535156 0 11.832031-5.296875 11.832031-11.832031v-183.867187c0-6.535157-5.296875-11.832032-11.832031-11.832032zm0 0" fill="#cee8f2"/><path d="m89.046875 380.007812c0 51.472657 41.726563 93.203126 93.203125 93.203126v-93.203126zm0 0" fill="#c9d1d3"/><path d="m182.25 286.800781c-51.476562 0-93.203125 41.730469-93.203125 93.207031h93.203125zm0 0" fill="#dae5ea"/><path d="m182.25 473.210938c51.476562 0 93.207031-41.730469 93.207031-93.203126h-93.207031zm0 0" fill="#dae5ea"/><path d="m182.25 286.800781v93.207031h93.207031c0-51.476562-41.730469-93.207031-93.207031-93.207031zm0 0" fill="#c9d1d3"/><path d="m232.636719 380.007812c0 27.828126-22.558594 50.386719-50.386719 50.386719s-50.386719-22.558593-50.386719-50.386719c0-27.828124 22.558594-50.386718 50.386719-50.386718s50.386719 22.558594 50.386719 50.386718zm0 0" fill="#e3f6ff"/><path d="m243.847656 169.988281c0-.09375.003906-.183593 0-.273437v-92.617188c0-3.019531-2.898437-5.195312-5.796875-4.347656l-83.210937 24.320312c-1.929688.5625-3.257813 2.332032-3.257813 4.34375v83.066407c-1.171875.070312-2.363281.242187-3.554687.5625-8.3125 2.226562-13.457032 9.972656-11.492188 17.304687 1.964844 7.332032 10.292969 11.46875 18.605469 9.242188 6.25-1.675782 10.707031-6.472656 11.695313-11.867188.128906-.554687.199218-1.128906.199218-1.71875v-.742187c-.003906-.089844.003906-.183594 0-.273438v-74.5625l61.359375-17.933593v52.714843c-1.175781.066407-2.363281.238281-3.558593.558594-8.308594 2.226563-13.453126 9.972656-11.488282 17.304687 1.964844 7.332032 10.292969 11.46875 18.601563 9.242188 5.621093-1.503906 9.785156-5.542969 11.289062-10.261719.390625-.925781.609375-1.945312.609375-3.011719zm0 0" fill="#465058"/></svg>