<svg xmlns="http://www.w3.org/2000/svg" viewBox="0 0 496 496" width="496" height="496">
	<style>
		tspan { white-space:pre }
		.shp0 { fill: #ff4f19 } 
		.shp1 { fill: #e3001e } 
		.shp2 { fill: #e6be8a } 
		.shp3 { fill: #ffebb7 } 
		.shp4 { fill: #ffd788 } 
	</style>
	<g id="Layer">
		<g id="Layer">
			<path id="Layer" class="shp0" d="M472 116.07L24 116.07C10.77 116.07 0 126.84 0 140.07L0 404.07C0 417.3 10.77 428.07 24 428.07L472 428.07C485.23 428.07 496 417.3 496 404.07L496 140.07C496 126.84 485.23 116.07 472 116.07Z" />
		</g>
		<g id="Layer">
			<path id="Layer" class="shp1" d="M224 388.07L272 388.07L272 428.07L224 428.07L224 388.07Z" />
		</g>
		<g id="Layer">
			<path id="Layer" class="shp2" d="M464.22 364.07L464.22 388.07C464.22 392.49 460.64 396.07 456.22 396.07L40.22 396.07C35.8 396.07 32.22 392.49 32.22 388.07L32.22 364.07L80 340.07L272 348.07L432 340.07L464.22 364.07Z" />
		</g>
		<g id="Layer">
			<path id="Layer" class="shp3" d="M43.44 375.12C109.18 347.98 183.53 349.63 248.22 380.07L248.22 92.07C181.39 60.63 104.27 59.9 36.97 89.89C34.07 91.19 32.22 94.12 32.22 97.29L32.22 367.8C32.22 373.58 38.1 377.32 43.44 375.12Z" />
		</g>
		<g id="Layer">
			<path id="Layer" class="shp4" d="M248.22 380.07C312.91 349.63 387.26 347.98 453 375.12C458.34 377.32 464.22 373.58 464.22 367.8L464.22 97.29C464.22 94.12 462.36 91.19 459.47 89.89C392.17 59.9 315.04 60.63 248.22 92.07L248.22 380.07L248.22 380.07Z" />
		</g>
	</g>
</svg>