<svg xmlns="http://www.w3.org/2000/svg" viewBox="0 0 512 512" width="512" height="512">
	<style>
		tspan { white-space:pre }
		.shp0 { fill: #896748 } 
		.shp1 { fill: #73553a } 
		.shp2 { fill: #59422d } 
	</style>
	<path id="Layer" class="shp0" d="M301 121C313.6 121 325 112.9 329.2 100.9C331.3 94.9 337 91 343.3 91L467 91C491.9 91 512 111.1 512 136L512 151L482 166L512 181L512 271L482 286L512 301L512 331L482 346L512 361L512 376C512 400.9 491.9 421 467 421L166 421C157.6 421 151 414.4 151 406C151 397.6 144.4 391 136 391C127.6 391 121 397.6 121 406C121 414.4 114.4 421 106 421L45 421C20.1 421 0 400.9 0 376L0 301L30 288.4L0 271L0 241L30 226L0 211L0 181L30 166L0 151L0 136C0 111.1 20.1 91 45 91L258.7 91C265 91 270.7 94.9 272.8 100.9C277 112.9 288.4 121 301 121Z" />
	<g id="Layer">
		<path id="Layer" class="shp1" d="M301 121C313.6 121 325 112.9 329.2 100.9C331.3 94.9 337 91 343.3 91L467 91C491.9 91 512 111.1 512 136L512 151L482 166L512 181L512 256L0 256L0 241L30 226L0 211L0 181L30 166L0 151L0 136C0 111.1 20.1 91 45 91L258.7 91C265 91 270.7 94.9 272.8 100.9C277 112.9 288.4 121 301 121Z" />
		<path id="Layer" class="shp1" d="M181 346C181 354.29 187.71 361 196 361L512 361L512 331L196 331C187.71 331 181 337.71 181 346Z" />
	</g>
	<g id="Layer">
		<path id="Layer" class="shp2" d="M391 226C391 217.71 384.29 211 376 211L0 211L0 241L376 241C384.29 241 391 234.29 391 226Z" />
		<path id="Layer" class="shp2" d="M241 166C241 157.71 234.29 151 226 151L0 151L0 181L226 181C234.29 181 241 174.29 241 166Z" />
		<path id="Layer" class="shp2" d="M361 166C361 174.29 367.71 181 376 181L512 181L512 151L376 151C367.71 151 361 157.71 361 166Z" />
	</g>
	<path id="Layer" class="shp1" d="M0 301L0 271L512 271L512 301L0 301Z" />
</svg>